<svg width="28" height="28" viewBox="0 0 28 28" fill="none" xmlns="http://www.w3.org/2000/svg">
<circle cx="14" cy="14" r="14" fill="#65A3FF"/>
<path fill-rule="evenodd" clip-rule="evenodd" d="M20.042 6.7085V10.0418C20.042 10.3868 20.322 10.6668 20.667 10.6668C21.012 10.6668 21.292 10.3868 21.292 10.0418V6.7085C21.292 6.3635 21.012 6.0835 20.667 6.0835C20.322 6.0835 20.042 6.3635 20.042 6.7085Z" fill="black"/>
<path fill-rule="evenodd" clip-rule="evenodd" d="M19 9H22.3333C22.6783 9 22.9583 8.72 22.9583 8.375C22.9583 8.03 22.6783 7.75 22.3333 7.75H19C18.655 7.75 18.375 8.03 18.375 8.375C18.375 8.72 18.655 9 19 9Z" fill="black"/>
<path fill-rule="evenodd" clip-rule="evenodd" d="M15.667 6.5H11.5987C11.0462 6.5 10.5412 6.8125 10.2945 7.30583L9.50533 8.885C9.46949 8.955 9.39783 9 9.31866 9H7.33366C6.06783 9 5.04199 10.0258 5.04199 11.2917V19.625C5.04199 20.2325 5.28366 20.8158 5.71283 21.2458C6.14283 21.675 6.72616 21.9167 7.33366 21.9167H20.667C21.2745 21.9167 21.8578 21.675 22.2878 21.2458C22.717 20.8158 22.9587 20.2325 22.9587 19.625C22.9587 17.0858 22.9587 12.5417 22.9587 12.5417C22.9587 12.1967 22.6787 11.9167 22.3337 11.9167C21.9887 11.9167 21.7087 12.1967 21.7087 12.5417V19.625C21.7087 19.9017 21.5987 20.1658 21.4037 20.3617C21.2078 20.5567 20.9437 20.6667 20.667 20.6667H7.33366C7.05699 20.6667 6.79283 20.5567 6.59699 20.3617C6.40199 20.1658 6.29199 19.9017 6.29199 19.625V11.2917C6.29199 10.7167 6.75866 10.25 7.33366 10.25H9.31866C9.87116 10.25 10.3762 9.9375 10.6228 9.44417L11.412 7.865C11.4478 7.795 11.5195 7.75 11.5987 7.75H15.667C16.012 7.75 16.292 7.47 16.292 7.125C16.292 6.78 16.012 6.5 15.667 6.5Z" fill="black"/>
<path fill-rule="evenodd" clip-rule="evenodd" d="M14.0003 11.0835C11.8153 11.0835 10.042 12.8568 10.042 15.0418C10.042 17.2268 11.8153 19.0002 14.0003 19.0002C16.1853 19.0002 17.9587 17.2268 17.9587 15.0418C17.9587 12.8568 16.1853 11.0835 14.0003 11.0835ZM14.0003 12.3335C15.4953 12.3335 16.7087 13.5468 16.7087 15.0418C16.7087 16.5368 15.4953 17.7502 14.0003 17.7502C12.5053 17.7502 11.292 16.5368 11.292 15.0418C11.292 13.5468 12.5053 12.3335 14.0003 12.3335Z" fill="black"/>
</svg>
