<svg xmlns="http://www.w3.org/2000/svg" width="20" height="15" viewBox="0 0 20 15" fill="none">
  <mask id="mask0_757_4182" style="mask-type:luminance" maskUnits="userSpaceOnUse" x="0" y="0" width="20" height="15">
    <path d="M0 0H20V15H0V0Z" fill="white"/>
  </mask>
  <g mask="url(#mask0_757_4182)">
    <path fill-rule="evenodd" clip-rule="evenodd" d="M0 0V15H20V0H0Z" fill="#2E42A5"/>
    <mask id="mask1_757_4182" style="mask-type:luminance" maskUnits="userSpaceOnUse" x="0" y="0" width="20" height="15">
      <path fill-rule="evenodd" clip-rule="evenodd" d="M0 0V15H20V0H0Z" fill="white"/>
    </mask>
    <g mask="url(#mask1_757_4182)">
      <mask id="mask2_757_4182" style="mask-type:luminance" maskUnits="userSpaceOnUse" x="0" y="0" width="20" height="15">
        <path d="M0 0H20V15H0V0Z" fill="white"/>
      </mask>
      <g mask="url(#mask2_757_4182)">
        <path d="M-2.22607 13.9275L2.17498 15.7888L20.1008 2.02279L22.4222 -0.743134L17.7159 -1.36523L10.4044 4.56693L4.51942 8.56385L-2.22607 13.9275Z" fill="white"/>
        <path d="M-1.62207 15.2327L0.620063 16.3128L21.5901 -0.999023H18.4419L-1.62207 15.2327Z" fill="#F50100"/>
        <path d="M22.2284 13.9275L17.8273 15.7888L-0.0984638 2.02279L-2.41992 -0.743134L2.28638 -1.36523L9.59786 4.56693L15.4829 8.56385L22.2284 13.9275Z" fill="white"/>
        <path d="M22.0779 14.8618L19.8358 15.9419L10.9066 8.52981L8.2592 7.70162L-2.64355 -0.735352H0.504662L11.4013 7.50137L14.2957 8.49444L22.0779 14.8618Z" fill="#F50100"/>
        <path fill-rule="evenodd" clip-rule="evenodd" d="M12.3639 -1.25195H7.64173V4.99805H-1.22998V9.99805H7.64173V16.248H12.3639V9.99805H21.27V4.99805H12.3639V-1.25195Z" fill="#F50100"/>
        <mask id="mask3_757_4182" style="mask-type:luminance" maskUnits="userSpaceOnUse" x="-2" y="-2" width="24" height="19">
          <path fill-rule="evenodd" clip-rule="evenodd" d="M12.3605 -1.25293H7.63831V4.99707H-1.2334V9.99707H7.63831V16.2471H12.3605V9.99707H21.2666V4.99707H12.3605V-1.25293Z" fill="white"/>
        </mask>
        <g mask="url(#mask3_757_4182)">
          <path d="M7.63928 -1.25098V-2.50098H6.38928V-1.25098H7.63928ZM12.3615 -1.25098H13.6115V-2.50098H12.3615V-1.25098ZM7.63928 4.99902V6.24902H8.88928V4.99902H7.63928ZM-1.23242 4.99902V3.74902H-2.48242V4.99902H-1.23242ZM-1.23242 9.99902H-2.48242V11.249H-1.23242V9.99902ZM7.63928 9.99902H8.88928V8.74902H7.63928V9.99902ZM7.63928 16.249H6.38928V17.499H7.63928V16.249ZM12.3615 16.249V17.499H13.6115V16.249H12.3615ZM12.3615 9.99902V8.74902H11.1115V9.99902H12.3615ZM21.2676 9.99902V11.249H22.5176V9.99902H21.2676ZM21.2676 4.99902H22.5176V3.74902H21.2676V4.99902ZM12.3615 4.99902H11.1115V6.24902H12.3615V4.99902ZM7.63928 -0.000976801H12.3615V-2.50098H7.63928V-0.000976801ZM8.88928 4.99902V-1.25098H6.38928V4.99902H8.88928ZM-1.23242 6.24902H7.63928V3.74902H-1.23242V6.24902ZM0.0175753 9.99902V4.99902H-2.48242V9.99902H0.0175753ZM7.63928 8.74902H-1.23242V11.249H7.63928V8.74902ZM8.88928 16.249V9.99902H6.38928V16.249H8.88928ZM12.3615 14.999H7.63928V17.499H12.3615V14.999ZM11.1115 9.99902V16.249H13.6115V9.99902H11.1115ZM21.2676 8.74902H12.3615V11.249H21.2676V8.74902ZM20.0176 4.99902V9.99902H22.5176V4.99902H20.0176ZM12.3615 6.24902H21.2676V3.74902H12.3615V6.24902ZM11.1115 -1.25098V4.99902H13.6115V-1.25098H11.1115Z" fill="white"/>
        </g>
      </g>
    </g>
  </g>
</svg>