<svg xmlns="http://www.w3.org/2000/svg" width="21" height="20" viewBox="0 0 21 20" fill="none">
  <g clip-path="url(#clip0_848_9508)">
    <path d="M11.1781 13.3264C10.8389 13.0281 10.2872 13.073 9.98886 13.4122L6.84207 16.9595V2.78266C6.84207 2.31677 6.45792 1.93262 5.99204 1.93262C5.52615 1.93262 5.142 2.31677 5.142 2.78266V16.9595L1.99521 13.4122C1.65602 13.073 1.14518 13.0281 0.805977 13.3264C0.466779 13.6656 0.421824 14.1765 0.720156 14.5157L5.35451 19.7017C5.70188 20.1308 6.31489 20.0654 6.5887 19.7017L11.2639 14.5157C11.5622 14.1805 11.5214 13.6247 11.1781 13.3264Z" fill="white"/>
    <path d="M20.2795 5.50489L15.6861 0.318831C15.2774 -0.0939285 14.7665 -0.118449 14.411 0.318831L9.73578 5.50489C9.43745 5.84409 9.4824 6.3958 9.8216 6.69413C10.3447 7.11097 10.8719 6.8249 11.0108 6.60831L14.1576 3.06103V17.197C14.1576 17.6629 14.5418 18.0471 15.0077 18.0471C15.4735 18.0471 15.8577 17.7079 15.8577 17.2379V3.06511L19.0045 6.61239C19.3437 6.95159 19.8545 6.99655 20.1937 6.69821C20.5329 6.35493 20.5779 5.84409 20.2795 5.50489Z" fill="white"/>
  </g>
  <defs>
    <clipPath id="clip0_848_9508">
      <rect width="20" height="20" fill="white" transform="translate(0.5)"/>
    </clipPath>
  </defs>
</svg>