<svg xmlns="http://www.w3.org/2000/svg" width="40" height="40" viewBox="0 0 40 40" fill="none">
  <g clip-path="url(#clip0_849_16510)">
    <path d="M30.9604 22.4216C29.8601 16.884 35.1162 13.6363 35.1162 13.6363C35.1162 13.6363 33.0683 10.6736 29.6267 9.91139C26.1868 9.14753 24.4651 10.1019 22.7468 10.8177C21.0268 11.5352 20.1686 11.5352 20.1686 11.5352C17.6865 11.5352 15.872 8.90721 11.143 10.1036C7.88505 10.9258 4.45535 14.6868 3.83569 19.1756C3.21602 23.6661 4.55323 29.3958 7.13145 33.8366C9.70967 38.2807 12.336 39.9509 14.2001 39.9989C16.0643 40.0453 17.9251 38.6635 20.1686 38.327C22.4138 37.994 23.7956 39.1407 25.9979 39.7604C28.1916 40.3784 28.9607 39.805 31.4874 37.6559C34.021 35.5067 36.3143 29.3427 36.3143 29.3427C36.3143 29.3427 32.0607 27.9625 30.9604 22.4216Z" fill="white"/>
    <path d="M26.0888 6.32885C28.5263 3.84509 27.7006 0 27.7006 0C27.7006 0 24.2779 0.600807 21.9845 2.98677C19.693 5.37448 20.0723 9.14572 20.0723 9.14572C20.0723 9.14572 23.6513 8.81102 26.0888 6.32885Z" fill="white"/>
  </g>
  <defs>
    <clipPath id="clip0_849_16510">
      <rect width="40" height="40" fill="white"/>
    </clipPath>
  </defs>
</svg>