<svg xmlns="http://www.w3.org/2000/svg" width="40" height="40" viewBox="0 0 40 40" fill="none">
  <path d="M36.6666 5H3.33336C1.49492 5 0 6.49492 0 8.33336V31.6667C0 33.5051 1.49492 35 3.33336 35H36.6667C38.5051 35 40 33.5051 40 31.6666V8.33336C40 6.49492 38.5051 5 36.6666 5ZM3.33336 6.66664H36.6667C36.7895 6.66664 36.8977 6.71141 37.013 6.73672C34.1271 9.37789 24.558 18.132 21.2094 21.1491C20.9473 21.3851 20.525 21.6666 20.0001 21.6666C19.4752 21.6666 19.0528 21.3851 18.7899 21.1483C15.4416 18.1316 5.87195 9.37711 2.98656 6.73688C3.10203 6.71156 3.21047 6.66664 3.33336 6.66664ZM1.66664 31.6666V8.33336C1.66664 8.17008 1.71586 8.02195 1.75992 7.87273C3.96867 9.8943 10.6455 16.0024 14.9749 19.9394C10.6596 23.6462 3.98102 29.978 1.75469 32.101C1.71539 31.9593 1.66664 31.8207 1.66664 31.6666ZM36.6666 33.3334H3.33336C3.20023 33.3334 3.08187 33.287 2.95758 33.2573C5.25812 31.0641 11.9792 24.6959 16.2187 21.0691C16.7713 21.5704 17.2762 22.0275 17.6741 22.3861C18.361 23.0062 19.165 23.3334 20 23.3334C20.835 23.3334 21.639 23.0062 22.325 22.3869C22.7231 22.0281 23.2284 21.5706 23.7813 21.0691C28.021 24.6955 34.7412 31.0633 37.0424 33.2573C36.9181 33.287 36.7999 33.3334 36.6666 33.3334ZM38.3334 31.6666C38.3334 31.8206 38.2846 31.9593 38.2454 32.101C36.0182 29.977 29.3404 23.6458 25.0252 19.9395C29.3547 16.0025 36.0305 9.89492 38.2401 7.87258C38.2841 8.0218 38.3334 8.17 38.3334 8.33328V31.6666Z" fill="white"/>
</svg>