<svg xmlns="http://www.w3.org/2000/svg" width="20" height="21" viewBox="0 0 20 21" fill="none">
  <path d="M16.1631 9.05933C15.985 8.82839 15.6144 8.94745 15.6034 9.23902C15.58 9.88214 15.3525 10.4962 14.9619 11.0015C14.7944 6.44558 10.2094 6.68714 10.4641 2.07995C10.4794 1.80183 10.1484 1.6437 9.94124 1.83214C7.28468 4.26027 5.92999 7.75589 6.25624 11.2759C5.30187 10.784 4.6128 9.9137 4.37249 8.86777C4.3128 8.6087 3.97655 8.53777 3.81749 8.75089C0.907491 12.6518 3.04437 18.1762 7.84249 19.2428C8.1878 19.3196 8.36968 18.8556 8.0753 18.6725C6.9428 17.9687 6.34562 16.7178 6.49499 15.4493C7.36562 16.094 8.42312 16.4553 9.5253 16.4768C9.76718 16.4709 9.89843 16.2468 9.8228 16.0518C9.28562 14.6615 9.44468 13.1168 10.2406 11.8631C12.5441 13.3978 13.3528 16.3268 12.1137 18.7978C11.9962 19.0325 12.2044 19.3034 12.4666 19.2415C17.0859 18.125 19.02 12.7584 16.1631 9.05933ZM12.9466 18.4468C13.9472 15.7381 12.8872 12.7034 10.3119 11.1693C10.1747 11.0871 9.99468 11.1221 9.89874 11.2543C8.93218 12.5887 8.64155 14.2643 9.08687 15.8212C8.12093 15.7093 7.21562 15.3 6.49999 14.6446C6.32718 14.4862 6.04905 14.5681 5.98749 14.7925C5.66155 15.9834 5.91249 17.2115 6.61499 18.1634C3.38499 16.6225 2.14468 12.7075 3.96562 9.65089C4.42062 10.7712 5.34093 11.6525 6.52499 12.0709C6.74437 12.1487 6.97155 11.9659 6.93843 11.7321C6.47499 8.47589 7.55312 5.19183 9.83687 2.80652C10.0737 7.26964 14.6603 7.00277 14.3222 11.754C14.3028 12.025 14.6169 12.1906 14.8294 12.02C15.4556 11.5181 15.8972 10.8393 16.1016 10.0868C17.9203 13.225 16.4097 17.209 12.9466 18.4468Z" fill="#303D7E"/>
</svg>