<svg xmlns="http://www.w3.org/2000/svg" width="20" height="20" viewBox="0 0 20 20" fill="none">
  <g clip-path="url(#clip0_757_2856)">
    <path d="M10.0035 0.00195323C6.00229 0.00137002 2.38604 2.38641 0.811164 6.06469L0.686523 6.10601L0.734846 6.25098C-1.33872 11.3652 1.12614 17.192 6.24032 19.2656C7.43478 19.7499 8.71164 19.9985 10.0006 19.9978C15.5223 19.9986 19.9992 15.5231 20 10.0014C20.0008 4.47969 15.5253 0.00274473 10.0035 0.00195323ZM17.8458 15.0407L17.3324 14.5276V13.3325C17.333 13.2809 17.3216 13.2299 17.2991 13.1835L15.9993 10.5877V9.33334C15.9993 9.22195 15.9437 9.11789 15.851 9.05607L14.8512 8.38954C14.7729 8.33722 14.676 8.32051 14.5846 8.34355L13.3602 8.64948L11.3036 7.767L11.0207 5.78475L11.8049 5.00091H13.4882L14.0547 5.8524C14.1059 5.92897 14.1865 5.981 14.2774 5.99604L16.2769 6.3293C16.3305 6.3383 16.3854 6.33393 16.4369 6.31664L18.2785 5.70276C19.8232 8.66694 19.6579 12.2321 17.8458 15.0407ZM16.4712 3.28594L15.9293 3.64719L14.4187 3.34492L13.4385 3.01866C13.3785 2.99829 13.314 2.9957 13.2526 3.01133L12.0135 3.32093L11.4703 3.13997L11.8729 2.3348H13C13.0517 2.33484 13.1026 2.32289 13.1489 2.29981L14.302 1.72326C15.0961 2.13776 15.8266 2.66398 16.4712 3.28594ZM6.35034 1.41266L7.15018 1.94588C7.1895 1.97204 7.23391 1.98954 7.28048 1.9972L8.89548 2.26648L8.73785 2.73805L7.89635 3.01899C7.82099 3.04407 7.75705 3.09523 7.71606 3.16329L6.75892 4.7583L5.22158 5.68077L2.95538 6.00437C2.79113 6.02757 2.66899 6.16808 2.66878 6.33397V7.33376C2.66878 7.42216 2.70394 7.50689 2.76642 7.56938L3.3353 8.13826V8.7108L1.94893 7.78633L1.44603 6.27765C2.40283 4.09143 4.15651 2.3518 6.35034 1.41266ZM5.40154 12.3394L3.89519 12.0378L3.3353 10.921V10.1378L4.57705 8.8961L5.03662 9.81557C5.09306 9.92855 5.20858 9.99991 5.33489 9.99987H7.47911L8.38192 11.5046C8.44216 11.6048 8.55055 11.6661 8.66753 11.6662H9.594L9.36072 12.8349L8.09898 14.0967C8.03637 14.1591 8.00112 14.2439 8.001 14.3323V15.1655L6.80125 16.0653C6.71735 16.1282 6.66794 16.227 6.66794 16.3319V17.5356L6.25336 17.3983L5.66815 15.9346V12.666C5.66819 12.5076 5.55672 12.371 5.40154 12.3394ZM4.39975 17.4625C1.25753 15.1051 -0.0713191 11.032 1.07611 7.2751L1.35305 8.1056C1.37638 8.17587 1.42245 8.2364 1.48402 8.27756L3.14534 9.385L2.76642 9.76425C2.70394 9.82674 2.66878 9.91147 2.66878 9.99987V10.9997C2.66874 11.0514 2.68069 11.1023 2.70377 11.1486L3.3703 12.4817C3.41645 12.5738 3.50256 12.6393 3.60358 12.6593L5.00329 12.9389V15.9986C5.00325 16.0409 5.01129 16.0829 5.02695 16.1223L5.69348 17.7886C5.72997 17.8796 5.80471 17.95 5.89777 17.9809L6.89756 18.3141C6.93097 18.3255 6.96596 18.3313 7.00121 18.3315C7.18525 18.3315 7.33447 18.1822 7.33447 17.9982V16.4985L8.53422 15.5987C8.61812 15.5358 8.66753 15.437 8.66753 15.3321V14.4703L9.90294 13.2349C9.94938 13.1883 9.98105 13.1291 9.99392 13.0646L10.3272 11.3982C10.3633 11.2177 10.2462 11.0422 10.0657 11.0061C10.0442 11.0018 10.0225 10.9997 10.0006 10.9997H8.85615L7.95334 9.49497C7.89311 9.3947 7.78471 9.33338 7.66774 9.33334H5.54084L4.9683 8.18458C4.92035 8.08868 4.8292 8.0217 4.72335 8.00462C4.61754 7.98633 4.50952 8.02124 4.43441 8.09793L4.00183 8.52884V8.00029C4.00183 7.91189 3.96667 7.82716 3.90419 7.76467L3.3353 7.19579V6.62291L5.38221 6.33063C5.42616 6.32426 5.46844 6.30918 5.50652 6.28631L7.17284 5.28652C7.21958 5.25844 7.25874 5.21928 7.28681 5.17254L8.22329 3.61187L9.1061 3.31726C9.20579 3.28456 9.28402 3.20637 9.31672 3.10664L9.64999 2.10685C9.70773 1.93209 9.61287 1.74359 9.43812 1.68585C9.42199 1.68052 9.40546 1.67644 9.38871 1.6736L7.45978 1.35201L7.12085 1.12605C9.21804 0.443445 11.4895 0.527927 13.5302 1.36434L12.9213 1.66827H11.6669C11.54 1.66756 11.4237 1.73905 11.367 1.85257L10.7004 3.18562C10.6183 3.35034 10.6853 3.55046 10.85 3.63257C10.864 3.63957 10.8785 3.64557 10.8934 3.65053L11.8932 3.98379C11.9532 4.00416 12.0177 4.00674 12.0791 3.99112L13.3182 3.68152L14.226 3.98379C14.239 3.98846 14.2524 3.99204 14.266 3.99445L15.9323 4.32772C16.019 4.34538 16.1091 4.32764 16.1826 4.2784L16.9411 3.7725C17.3144 4.18829 17.6499 4.63653 17.9436 5.11189L16.3039 5.65844L14.5286 5.3625L13.9421 4.48269C13.8806 4.3905 13.7773 4.33493 13.6665 4.33438H11.6669C11.5785 4.33438 11.4938 4.36954 11.4313 4.43203L10.4315 5.43182C10.3573 5.50601 10.3223 5.61087 10.3372 5.71476L10.6704 8.04761C10.6872 8.16296 10.763 8.26115 10.8704 8.30655L13.2032 9.30635C13.2701 9.3353 13.3446 9.34126 13.4152 9.32334L14.6053 9.02574L15.3328 9.51164V10.6664C15.3322 10.718 15.3436 10.769 15.3661 10.8154L16.6659 13.4112V14.6656C16.6659 14.754 16.701 14.8387 16.7635 14.9012L17.4607 15.5987C14.3687 19.7201 8.5211 20.5545 4.39975 17.4625Z" fill="white"/>
  </g>
  <defs>
    <clipPath id="clip0_757_2856">
      <rect width="20" height="20" fill="white"/>
    </clipPath>
  </defs>
</svg>