<svg xmlns="http://www.w3.org/2000/svg" width="20" height="20" viewBox="0 0 20 20" fill="none">
  <g clip-path="url(#clip0_1099_12205)">
    <path d="M10.0035 0.00219737C6.00229 0.00161416 2.38604 2.38666 0.811164 6.06493L0.686523 6.10626L0.734846 6.25123C-1.33872 11.3654 1.12614 17.1922 6.24032 19.2658C7.43478 19.7501 8.71164 19.9987 10.0006 19.998C15.5223 19.9989 19.9992 15.5233 20 10.0016C20.0008 4.47993 15.5253 0.00298887 10.0035 0.00219737ZM17.8458 15.0409L17.3324 14.5278V13.3328C17.333 13.2812 17.3216 13.2302 17.2991 13.1838L15.9993 10.588V9.33359C15.9993 9.22219 15.9437 9.11813 15.851 9.05631L14.8512 8.38978C14.7729 8.33746 14.676 8.32076 14.5846 8.34379L13.3602 8.64973L11.3036 7.76725L11.0207 5.78499L11.8049 5.00116H13.4882L14.0547 5.85264C14.1059 5.92921 14.1865 5.98124 14.2774 5.99628L16.2769 6.32955C16.3305 6.33854 16.3854 6.33417 16.4369 6.31688L18.2785 5.70301C19.8232 8.66718 19.6579 12.2323 17.8458 15.0409ZM16.4712 3.28618L15.9293 3.64744L14.4187 3.34517L13.4385 3.0189C13.3785 2.99853 13.314 2.99595 13.2526 3.01157L12.0135 3.32117L11.4703 3.14021L11.8729 2.33504H13C13.0517 2.33509 13.1026 2.32313 13.1489 2.30005L14.302 1.72351C15.0961 2.138 15.8266 2.66423 16.4712 3.28618ZM6.35034 1.4129L7.15018 1.94613C7.1895 1.97229 7.23391 1.98978 7.28048 1.99745L8.89548 2.26673L8.73785 2.73829L7.89635 3.01924C7.82099 3.04431 7.75705 3.09547 7.71606 3.16354L6.75892 4.75854L5.22158 5.68101L2.95538 6.00461C2.79113 6.02782 2.66899 6.16833 2.66878 6.33421V7.334C2.66878 7.4224 2.70394 7.50713 2.76642 7.56962L3.3353 8.1385V8.71105L1.94893 7.78657L1.44603 6.27789C2.40283 4.09168 4.15651 2.35204 6.35034 1.4129ZM5.40154 12.3396L3.89519 12.038L3.3353 10.9213V10.1381L4.57705 8.89634L5.03662 9.81582C5.09306 9.92879 5.20858 10.0002 5.33489 10.0001H7.47911L8.38192 11.5048C8.44216 11.6051 8.55055 11.6664 8.66753 11.6664H9.594L9.36072 12.8352L8.09898 14.0969C8.03637 14.1594 8.00112 14.2441 8.001 14.3325V15.1657L6.80125 16.0655C6.71735 16.1285 6.66794 16.2272 6.66794 16.3321V17.5359L6.25336 17.3986L5.66815 15.9349V12.6662C5.66819 12.5078 5.55672 12.3713 5.40154 12.3396ZM4.39975 17.4628C1.25753 15.1054 -0.0713191 11.0322 1.07611 7.27535L1.35305 8.10584C1.37638 8.17612 1.42245 8.23665 1.48402 8.27781L3.14534 9.38524L2.76642 9.7645C2.70394 9.82698 2.66878 9.91172 2.66878 10.0001V10.9999C2.66874 11.0516 2.68069 11.1026 2.70377 11.1489L3.3703 12.4819C3.41645 12.574 3.50256 12.6396 3.60358 12.6596L5.00329 12.9392V15.9989C5.00325 16.0412 5.01129 16.0832 5.02695 16.1225L5.69348 17.7888C5.72997 17.8798 5.80471 17.9502 5.89777 17.9811L6.89756 18.3144C6.93097 18.3257 6.96596 18.3315 7.00121 18.3317C7.18525 18.3317 7.33447 18.1825 7.33447 17.9984V16.4988L8.53422 15.5989C8.61812 15.536 8.66753 15.4372 8.66753 15.3323V14.4705L9.90294 13.2351C9.94938 13.1886 9.98105 13.1293 9.99392 13.0648L10.3272 11.3985C10.3633 11.218 10.2462 11.0424 10.0657 11.0064C10.0442 11.0021 10.0225 10.9999 10.0006 10.9999H8.85615L7.95334 9.49522C7.89311 9.39495 7.78471 9.33363 7.66774 9.33359H5.54084L4.9683 8.18482C4.92035 8.08893 4.8292 8.02194 4.72335 8.00486C4.61754 7.98658 4.50952 8.02148 4.43441 8.09818L4.00183 8.52909V8.00053C4.00183 7.91213 3.96667 7.8274 3.90419 7.76491L3.3353 7.19603V6.62315L5.38221 6.33088C5.42616 6.3245 5.46844 6.30942 5.50652 6.28655L7.17284 5.28676C7.21958 5.25869 7.25874 5.21953 7.28681 5.17279L8.22329 3.61211L9.1061 3.31751C9.20579 3.28481 9.28402 3.20661 9.31672 3.10688L9.64999 2.10709C9.70773 1.93234 9.61287 1.74383 9.43812 1.6861C9.42199 1.68076 9.40546 1.67668 9.38871 1.67385L7.45978 1.35225L7.12085 1.1263C9.21804 0.443689 11.4895 0.528171 13.5302 1.36458L12.9213 1.66852H11.6669C11.54 1.66781 11.4237 1.73929 11.367 1.85281L10.7004 3.18587C10.6183 3.35058 10.6853 3.55071 10.85 3.63282C10.864 3.63981 10.8785 3.64581 10.8934 3.65077L11.8932 3.98403C11.9532 4.00441 12.0177 4.00699 12.0791 3.99137L13.3182 3.68176L14.226 3.98403C14.239 3.9887 14.2524 3.99228 14.266 3.9947L15.9323 4.32796C16.019 4.34563 16.1091 4.32788 16.1826 4.27864L16.9411 3.77274C17.3144 4.18853 17.6499 4.63677 17.9436 5.11213L16.3039 5.65868L14.5286 5.36275L13.9421 4.48293C13.8806 4.39074 13.7773 4.33517 13.6665 4.33463H11.6669C11.5785 4.33463 11.4938 4.36979 11.4313 4.43227L10.4315 5.43207C10.3573 5.50626 10.3223 5.61111 10.3372 5.71501L10.6704 8.04785C10.6872 8.16321 10.763 8.26139 10.8704 8.3068L13.2032 9.30659C13.2701 9.33554 13.3446 9.3415 13.4152 9.32359L14.6053 9.02598L15.3328 9.51188V10.6666C15.3322 10.7182 15.3436 10.7692 15.3661 10.8156L16.6659 13.4114V14.6658C16.6659 14.7542 16.701 14.8389 16.7635 14.9014L17.4607 15.5989C14.3687 19.7203 8.5211 20.5548 4.39975 17.4628Z" fill="#303D7E"/>
  </g>
  <defs>
    <clipPath id="clip0_1099_12205">
      <rect width="20" height="20" fill="white"/>
    </clipPath>
  </defs>
</svg>