<svg xmlns="http://www.w3.org/2000/svg" width="20" height="19" viewBox="0 0 20 19" fill="none">
  <g clip-path="url(#clip0_1099_10263)">
    <path d="M18.6094 17.2188H17.7188V5.34375C17.7188 5.26501 17.6875 5.1895 17.6318 5.13383C17.5761 5.07815 17.5006 5.04688 17.4219 5.04688H15.3438C15.265 5.04688 15.1895 5.07815 15.1338 5.13383C15.0782 5.1895 15.0469 5.26501 15.0469 5.34375V17.2188H13.8594V7.71875C13.8594 7.64001 13.8281 7.5645 13.7724 7.50883C13.7167 7.45315 13.6412 7.42188 13.5625 7.42188H11.4844C11.4056 7.42188 11.3301 7.45315 11.2745 7.50883C11.2188 7.5645 11.1875 7.64001 11.1875 7.71875V17.2188H10V9.79688C10 9.71814 9.96872 9.64263 9.91305 9.58695C9.85737 9.53128 9.78186 9.5 9.70312 9.5H7.625C7.54626 9.5 7.47075 9.53128 7.41508 9.58695C7.3594 9.64263 7.32812 9.71814 7.32812 9.79688V17.2188H6.14062V11.875C6.14062 11.7963 6.10935 11.7208 6.05367 11.6651C5.998 11.6094 5.92249 11.5781 5.84375 11.5781H3.76562C3.68689 11.5781 3.61138 11.6094 3.5557 11.6651C3.50003 11.7208 3.46875 11.7963 3.46875 11.875V17.2188H2.28125V0.890625C2.28125 0.654417 2.18742 0.427883 2.02039 0.260858C1.85337 0.0938334 1.62683 0 1.39062 0C1.15442 0 0.927883 0.0938334 0.760858 0.260858C0.593833 0.427883 0.5 0.654417 0.5 0.890625L0.5 17.5156C0.500471 17.9092 0.657012 18.2864 0.935284 18.5647C1.21356 18.843 1.59084 18.9995 1.98438 19H18.6094C18.8456 19 19.0721 18.9062 19.2391 18.7391C19.4062 18.5721 19.5 18.3456 19.5 18.1094C19.5 17.8732 19.4062 17.6466 19.2391 17.4796C19.0721 17.3126 18.8456 17.2188 18.6094 17.2188ZM15.6406 5.64062H17.125V17.2188H15.6406V5.64062ZM11.7812 8.01562H13.2656V17.2188H11.7812V8.01562ZM7.92188 10.0938H9.40625V17.2188H7.92188V10.0938ZM4.0625 12.1719H5.54688V17.2188H4.0625V12.1719ZM18.6094 18.4062H1.98438C1.74817 18.4062 1.52163 18.3124 1.35461 18.1454C1.18758 17.9784 1.09375 17.7518 1.09375 17.5156V0.890625C1.09375 0.811889 1.12503 0.736378 1.1807 0.680703C1.23638 0.625028 1.31189 0.59375 1.39062 0.59375C1.46936 0.59375 1.54487 0.625028 1.60055 0.680703C1.65622 0.736378 1.6875 0.811889 1.6875 0.890625V17.5156C1.6875 17.5944 1.71878 17.6699 1.77445 17.7255C1.83013 17.7812 1.90564 17.8125 1.98438 17.8125H18.6094C18.6881 17.8125 18.7636 17.8438 18.8193 17.8995C18.875 17.9551 18.9062 18.0306 18.9062 18.1094C18.9062 18.1881 18.875 18.2636 18.8193 18.3193C18.7636 18.375 18.6881 18.4062 18.6094 18.4062Z" fill="#303D7E"/>
    <path d="M3.76526 9.5C3.79549 9.49991 3.82552 9.4952 3.85433 9.48605C8.48209 8.00387 12.6902 5.44055 16.1301 2.00836L17.1246 1.01353V3.26562C17.1246 3.34436 17.1559 3.41987 17.2116 3.47555C17.2673 3.53122 17.3428 3.5625 17.4215 3.5625C17.5002 3.5625 17.5758 3.53122 17.6314 3.47555C17.6871 3.41987 17.7184 3.34436 17.7184 3.26562V0.296875C17.7182 0.257947 17.7104 0.219429 17.6955 0.183469C17.6731 0.129225 17.6351 0.0828449 17.5863 0.0501893C17.5376 0.0175337 17.4802 6.82389e-05 17.4215 0L14.4528 0C14.374 0 14.2985 0.0312778 14.2428 0.0869527C14.1872 0.142628 14.1559 0.218139 14.1559 0.296875C14.1559 0.375611 14.1872 0.451122 14.2428 0.506797C14.2985 0.562472 14.374 0.59375 14.4528 0.59375H16.7049L15.7103 1.58858C12.3379 4.95405 8.21224 7.4677 3.67501 8.92139C3.60835 8.94352 3.55169 8.98857 3.51511 9.04854C3.47854 9.1085 3.4644 9.17949 3.47523 9.2489C3.48605 9.3183 3.52113 9.38161 3.57424 9.42759C3.62734 9.47356 3.69503 9.49922 3.76526 9.5Z" fill="#303D7E"/>
  </g>
  <defs>
    <clipPath id="clip0_1099_10263">
      <rect width="19" height="19" fill="white" transform="translate(0.5)"/>
    </clipPath>
  </defs>
</svg>