<svg xmlns="http://www.w3.org/2000/svg" width="20" height="20" viewBox="0 0 20 20" fill="none">
  <g clip-path="url(#clip0_1099_13178)">
    <path d="M4.78668 10.875C4.29582 10.875 3.89648 11.2743 3.89648 11.7651C3.89648 12.2559 4.29582 12.6552 4.78668 12.6552C5.2775 12.6552 5.6768 12.2559 5.6768 11.7651C5.6768 11.2743 5.27746 10.875 4.78668 10.875ZM4.78668 12.0682C4.61957 12.0682 4.48359 11.9323 4.48359 11.7652C4.48359 11.5981 4.61957 11.4621 4.78668 11.4621C4.95379 11.4621 5.08973 11.5981 5.08973 11.7652C5.08973 11.9323 4.95375 12.0682 4.78668 12.0682Z" fill="#303D7E"/>
    <path d="M12.8408 16.5357C12.8015 16.4147 12.6888 16.3329 12.5616 16.3329H10.818L10.2791 14.6745C10.2403 14.555 10.1257 14.4717 9.99996 14.4717C9.87426 14.4717 9.75965 14.5549 9.72078 14.6745L9.18195 16.3329H7.43832C7.31117 16.3329 7.19844 16.4147 7.15914 16.5357C7.11984 16.6566 7.16289 16.7892 7.26578 16.8639L8.6764 17.8888L8.13758 19.5471C8.09996 19.6628 8.13949 19.793 8.23504 19.8683C8.33711 19.9487 8.48414 19.9517 8.5893 19.8753L9.99992 18.8504L11.4105 19.8753C11.5209 19.9554 11.6759 19.9477 11.7779 19.8573C11.8643 19.7806 11.898 19.657 11.8622 19.5471L11.3234 17.8888L12.734 16.8639C12.837 16.7892 12.8801 16.6567 12.8408 16.5357ZM10.8059 17.5391C10.703 17.6139 10.66 17.7464 10.6993 17.8673L11.0248 18.8693L10.1725 18.25C10.0707 18.1761 9.9291 18.1761 9.82742 18.25L8.97508 18.8693L9.30062 17.8673C9.33992 17.7464 9.29687 17.6138 9.19398 17.5391L8.34168 16.9199H9.39519C9.52234 16.9199 9.63508 16.838 9.67437 16.7171L9.99992 15.7151L10.3255 16.7171C10.3648 16.838 10.4775 16.9199 10.6046 16.9199H11.6582L10.8059 17.5391Z" fill="#303D7E"/>
    <path d="M19.9861 16.5357C19.9468 16.4147 19.834 16.3329 19.7069 16.3329H17.9633L17.4244 14.6745C17.3856 14.555 17.2709 14.4717 17.1452 14.4717C17.0195 14.4717 16.9049 14.5549 16.8661 14.6745L16.3272 16.3329H14.5836C14.4565 16.3329 14.3437 16.4147 14.3044 16.5357C14.2651 16.6566 14.3082 16.7892 14.4111 16.8639L15.8217 17.8888L15.2829 19.5471C15.2452 19.6628 15.2848 19.793 15.3803 19.8683C15.4824 19.9488 15.6294 19.9517 15.7346 19.8753L17.1452 18.8504L18.5558 19.8753C18.6662 19.9554 18.8212 19.9477 18.9232 19.8573C19.0097 19.7806 19.0433 19.657 19.0076 19.5471L18.4687 17.8888L19.8793 16.8639C19.9824 16.7892 20.0254 16.6566 19.9861 16.5357ZM17.9512 17.5392C17.8483 17.6139 17.8052 17.7464 17.8445 17.8673L18.1701 18.8693L17.3178 18.2501C17.2149 18.1753 17.0756 18.1753 16.9727 18.2501L16.1204 18.8693L16.4459 17.8673C16.4852 17.7464 16.4422 17.6139 16.3393 17.5392L15.487 16.92H16.5405C16.6677 16.92 16.7804 16.8381 16.8197 16.7171L17.1452 15.7152L17.4708 16.7171C17.5101 16.8381 17.6228 16.92 17.75 16.92H18.8035L17.9512 17.5392Z" fill="#303D7E"/>
    <path d="M5.69606 16.5357C5.65672 16.4147 5.54398 16.3329 5.41684 16.3329H3.6732L3.13438 14.6745C3.09508 14.5536 2.98234 14.4717 2.8552 14.4717C2.72805 14.4717 2.61531 14.5536 2.57602 14.6745L2.03719 16.3329H0.293555C0.166407 16.3329 0.0536723 16.4147 0.0143755 16.5357C-0.0249214 16.6566 0.0181255 16.7892 0.121016 16.8639L1.53164 17.8888L0.992813 19.5471C0.953516 19.668 0.996563 19.8006 1.09945 19.8753C1.20231 19.95 1.34164 19.95 1.44453 19.8753L2.85516 18.8504L4.26578 19.8753C4.37613 19.9554 4.53117 19.9477 4.63313 19.8573C4.71957 19.7806 4.7532 19.657 4.71746 19.5471L4.17863 17.8888L5.58926 16.8639C5.69231 16.7892 5.73535 16.6567 5.69606 16.5357ZM3.66113 17.5391C3.55824 17.6139 3.5152 17.7464 3.55449 17.8673L3.88004 18.8693L3.0277 18.25C2.92598 18.1761 2.78434 18.1761 2.68262 18.25L1.83035 18.8692L2.15586 17.8673C2.19516 17.7463 2.15211 17.6138 2.04922 17.5391L1.19691 16.9199H2.25043C2.37758 16.9199 2.49031 16.838 2.52961 16.717L2.85516 15.7151L3.1807 16.717C3.22 16.838 3.33273 16.9199 3.45988 16.9199H4.5134L3.66113 17.5391Z" fill="#303D7E"/>
    <path d="M17.6237 7.38632C17.9269 7.14234 18.1212 6.76824 18.1212 6.34968C18.1212 5.61621 17.5245 5.01949 16.7911 5.01949H12.0693C12.2161 4.69949 12.3855 4.21203 12.4823 3.53441C12.7073 1.95984 12.3674 1.12406 12.0427 0.700192C11.7678 0.341442 11.3986 0.124489 10.9749 0.0728483C10.6174 0.0289421 10.2909 0.312887 10.2814 0.672028C10.2264 1.23664 10.0254 2.78558 9.73742 3.3616C8.99762 4.84121 7.23379 5.72336 6.68902 5.96742C6.4984 5.80359 6.25082 5.70425 5.98035 5.70425H3.59387C2.9934 5.70425 2.50488 6.19273 2.50488 6.79324V12.7593C2.50488 13.3598 2.9934 13.8483 3.59387 13.8483H5.98027C6.30156 13.8483 6.59074 13.7083 6.7902 13.4863C7.1 13.6819 7.6 13.8998 8.29051 13.8998H15.9617C16.6952 13.8998 17.2919 13.303 17.2919 12.5696C17.2919 12.2334 17.1665 11.9259 16.96 11.6914C17.4017 11.4748 17.7065 11.0204 17.7065 10.4962C17.7065 10.16 17.5811 9.85257 17.3746 9.61808C17.8163 9.40152 18.1211 8.94711 18.1211 8.42293C18.1212 8.00441 17.9268 7.63031 17.6237 7.38632ZM5.98027 13.2612H3.59387C3.31711 13.2612 3.09195 13.036 3.09195 12.7593V6.7932C3.09195 6.51644 3.31711 6.29129 3.59387 6.29129H5.98027C6.12043 6.29129 6.24719 6.34918 6.33832 6.44215V12.9882C6.33832 13.0234 6.34469 13.0578 6.35672 13.0902C6.26465 13.1947 6.13023 13.2612 5.98027 13.2612ZM15.5577 7.67984H16.7912C17.2009 7.67984 17.5343 8.01324 17.5343 8.42293C17.5343 8.83261 17.2009 9.16601 16.7912 9.16601H15.5577C15.3956 9.16601 15.2642 9.29742 15.2642 9.45957C15.2642 9.62172 15.3956 9.75312 15.5577 9.75312H16.3765C16.7863 9.75312 17.1196 10.0865 17.1196 10.4962C17.1196 10.9059 16.7862 11.2393 16.3765 11.2393H15.3327C15.1706 11.2393 15.0391 11.3707 15.0391 11.5328C15.0391 11.695 15.1706 11.8264 15.3327 11.8264H15.9618C16.3715 11.8264 16.7049 12.1598 16.7049 12.5695C16.7049 12.9793 16.3715 13.3126 15.9618 13.3126H8.29059C7.68473 13.3126 7.27398 13.1096 7.05098 12.9573C7.06285 12.893 7.06938 12.8268 7.06938 12.7592V6.7932C7.06938 6.67843 7.05141 6.56785 7.01836 6.46394C7.70617 6.14828 9.46707 5.21496 10.2625 3.62414C10.6604 2.82847 10.8587 0.802301 10.867 0.716442C10.8678 0.707145 10.8683 0.697731 10.8683 0.688395C10.8683 0.678395 10.8721 0.66988 10.8796 0.663239C10.8902 0.653981 10.9004 0.655153 10.9037 0.655583C11.0875 0.678005 11.3534 0.765895 11.5766 1.05722C11.8329 1.39175 12.0973 2.07867 11.9012 3.4514C11.735 4.61496 11.3409 5.12398 11.3384 5.12714C11.1845 5.31519 11.3231 5.6066 11.5655 5.6066H16.7911C17.2009 5.6066 17.5342 5.94 17.5342 6.34972C17.5342 6.75949 17.2009 7.09281 16.7911 7.09281H15.5577C15.3956 7.09281 15.2641 7.22422 15.2641 7.38636C15.2641 7.54851 15.3956 7.67984 15.5577 7.67984Z" fill="#303D7E"/>
  </g>
  <defs>
    <clipPath id="clip0_1099_13178">
      <rect width="20" height="20" fill="white"/>
    </clipPath>
  </defs>
</svg>